<svg width="873" height="659" viewBox="0 0 873 659" fill="none" xmlns="http://www.w3.org/2000/svg">
<path d="M0.431633 530.67C-0.0431924 510.396 12.8601 489.638 32.5743 475.493C57.9606 457.176 88.3442 453.675 121.743 451.989C160.051 449.846 193.994 430.568 206.204 403.552C213.094 388.356 214.359 372.191 215.596 356.338C218.53 321.844 227.619 287.244 272.087 268.631C318.994 248.856 365.604 269.427 413.42 258.251C448.468 250.076 471.806 224.054 482.307 199.474C508.754 137.094 501.077 65.7787 584.011 24.7707C630.58 1.70807 688.06 -6.33717 740.726 8.2063C788.23 21.3259 816.212 55.7674 821.801 91.95C824.716 111.061 822.044 131.071 814.429 149.517C805.758 170.264 792.811 191.487 803.548 213.043C813.232 232.22 835.163 247.136 847.676 265.474C862.65 287.015 872.808 310.261 872.042 334.857C870.534 379.217 835.615 406.874 786.176 428.902C758.806 441.077 727.568 453.897 719.205 478.239C711.971 499.5 720.613 520.827 719.516 542.14C718.83 558.947 712.203 575.863 702.551 591.125C683.208 622.107 647.485 646.935 602.049 655.231C543.894 666.061 485.025 645.232 434.389 627.02C410.185 618.415 383.597 610.513 356.027 610.992C327.4 611.434 301.089 618.968 273 622.858C204.791 632.415 138.464 630.66 77.1351 606.635C43.609 593.513 11.3555 571.083 2.50591 542.741C1.17499 538.8 0.696127 534.731 0.431633 530.67Z" fill="#73D2F8" fill-opacity="0.31"/>
</svg>
